<svg viewBox="0 0 24 24" fill="currentColor" xmlns="http://www.w3.org/2000/svg">
  <path d="M11.553 3.064A.75.75 0 0 1 12 3.75v16.5a.75.75 0 0 1-1.255.555L5.46 16H2.75A.75.75 0 0 1 2 15.25v-6.5A.75.75 0 0 1 2.75 8H5.46l5.285-4.805a.75.75 0 0 1 .808-.13z"/>
  <path d="M15.596 7.404a.75.75 0 0 1 1.06 0 6.5 6.5 0 0 1 0 9.192.75.75 0 1 1-1.06-1.06 5 5 0 0 0 0-7.072.75.75 0 0 1 0-1.06z"/>
  <path d="M18.364 4.636a.75.75 0 0 1 1.06 0 11 11 0 0 1 0 15.556.75.75 0 0 1-1.06-1.06 9.5 9.5 0 0 0 0-13.436.75.75 0 0 1 0-1.06z"/>
</svg>
